<svg xmlns="http://www.w3.org/2000/svg" height="550" width="960" preserveAspectRatio="xMinYMin meet" version="1.1" xmlns:xlink="http://www.w3.org/1999/xlink">
<style type="text/css">
  <![CDATA[
 :root { color-scheme: light dark; }
 .t {  font-family: IBM3270, Consolas, monospace;
       font-size: 20px;
       fill: light-dark( #006400, #00ff00);
       text-align: center; }
 .HI { font-weight: bold; fill: light-dark( #000000, #f0f0f0); }
 .BL { fill: light-dark( #b00020, #ff0000); }
 .CS { fill: light-dark( #008b8b, #00ffff); }
 .BL.CS { fill: light-dark( #a000a0, #ff1aff); }
 .HI.BL.CS { fill: light-dark( #003399, #7890f0); }
 .l_UL { stroke: currentColor; stroke-width: 1px; }
 .l_CS { stroke: light-dark( #008b8b, #00ffff); stroke-width: 1px; stroke-opacity: 0.5; }
  ]]>
</style>
<text x="12" y="22" class="t HI BL CS">M</text>
<text x="24" y="22" class="t HI BL CS">A</text>
<text x="36" y="22" class="t HI BL CS">I</text>
<text x="48" y="22" class="t HI BL CS">N</text>
<text x="384" y="22" class="t HI">I</text>
<text x="396" y="22" class="t HI">B</text>
<text x="408" y="22" class="t HI">M</text>
<text x="432" y="22" class="t HI">i</text>
<text x="444" y="22" class="t HI">-</text>
<text x="456" y="22" class="t HI">H</text>
<text x="468" y="22" class="t HI">a</text>
<text x="480" y="22" class="t HI">u</text>
<text x="492" y="22" class="t HI">p</text>
<text x="504" y="22" class="t HI">t</text>
<text x="516" y="22" class="t HI">m</text>
<text x="528" y="22" class="t HI">e</text>
<text x="540" y="22" class="t HI">n</text>
<text x="552" y="22" class="t HI">ü</text>
<line x1="23" y1="45" x2="35" y2="45" class="l_UL" />
<line x1="131" y1="45" x2="143" y2="45" class="l_UL" />
<text x="732" y="44" class="t">S</text>
<text x="744" y="44" class="t">y</text>
<text x="756" y="44" class="t">s</text>
<text x="768" y="44" class="t">t</text>
<text x="780" y="44" class="t">e</text>
<text x="792" y="44" class="t">m</text>
<text x="804" y="44" class="t">:</text>
<text x="852" y="44" class="t">P</text>
<text x="864" y="44" class="t">U</text>
<text x="876" y="44" class="t">B</text>
<text x="888" y="44" class="t">4</text>
<text x="900" y="44" class="t">0</text>
<text x="912" y="44" class="t">0</text>
<text x="12" y="66" class="t HI BL CS">A</text>
<text x="24" y="66" class="t HI BL CS">u</text>
<text x="36" y="66" class="t HI BL CS">s</text>
<text x="48" y="66" class="t HI BL CS">w</text>
<text x="60" y="66" class="t HI BL CS">a</text>
<text x="72" y="66" class="t HI BL CS">h</text>
<text x="84" y="66" class="t HI BL CS">l</text>
<text x="96" y="66" class="t HI BL CS">m</text>
<text x="108" y="66" class="t HI BL CS">ö</text>
<text x="120" y="66" class="t HI BL CS">g</text>
<text x="132" y="66" class="t HI BL CS">l</text>
<text x="144" y="66" class="t HI BL CS">i</text>
<text x="156" y="66" class="t HI BL CS">c</text>
<text x="168" y="66" class="t HI BL CS">h</text>
<text x="180" y="66" class="t HI BL CS">k</text>
<text x="192" y="66" class="t HI BL CS">e</text>
<text x="204" y="66" class="t HI BL CS">i</text>
<text x="216" y="66" class="t HI BL CS">t</text>
<text x="228" y="66" class="t HI BL CS">e</text>
<text x="240" y="66" class="t HI BL CS">n</text>
<text x="252" y="66" class="t HI BL CS">:</text>
<text x="72" y="110" class="t">1</text>
<text x="84" y="110" class="t">.</text>
<text x="108" y="110" class="t">B</text>
<text x="120" y="110" class="t">e</text>
<text x="132" y="110" class="t">n</text>
<text x="144" y="110" class="t">u</text>
<text x="156" y="110" class="t">t</text>
<text x="168" y="110" class="t">z</text>
<text x="180" y="110" class="t">e</text>
<text x="192" y="110" class="t">r</text>
<text x="204" y="110" class="t">a</text>
<text x="216" y="110" class="t">u</text>
<text x="228" y="110" class="t">f</text>
<text x="240" y="110" class="t">g</text>
<text x="252" y="110" class="t">a</text>
<text x="264" y="110" class="t">b</text>
<text x="276" y="110" class="t">e</text>
<text x="288" y="110" class="t">n</text>
<text x="72" y="132" class="t">2</text>
<text x="84" y="132" class="t">.</text>
<text x="108" y="132" class="t">B</text>
<text x="120" y="132" class="t">ü</text>
<text x="132" y="132" class="t">r</text>
<text x="144" y="132" class="t">o</text>
<text x="156" y="132" class="t">a</text>
<text x="168" y="132" class="t">u</text>
<text x="180" y="132" class="t">f</text>
<text x="192" y="132" class="t">g</text>
<text x="204" y="132" class="t">a</text>
<text x="216" y="132" class="t">b</text>
<text x="228" y="132" class="t">e</text>
<text x="240" y="132" class="t">n</text>
<text x="72" y="154" class="t">3</text>
<text x="84" y="154" class="t">.</text>
<text x="108" y="154" class="t">A</text>
<text x="120" y="154" class="t">l</text>
<text x="132" y="154" class="t">l</text>
<text x="144" y="154" class="t">g</text>
<text x="156" y="154" class="t">e</text>
<text x="168" y="154" class="t">m</text>
<text x="180" y="154" class="t">e</text>
<text x="192" y="154" class="t">i</text>
<text x="204" y="154" class="t">n</text>
<text x="216" y="154" class="t">e</text>
<text x="240" y="154" class="t">S</text>
<text x="252" y="154" class="t">y</text>
<text x="264" y="154" class="t">s</text>
<text x="276" y="154" class="t">t</text>
<text x="288" y="154" class="t">e</text>
<text x="300" y="154" class="t">m</text>
<text x="312" y="154" class="t">a</text>
<text x="324" y="154" class="t">u</text>
<text x="336" y="154" class="t">f</text>
<text x="348" y="154" class="t">g</text>
<text x="360" y="154" class="t">a</text>
<text x="372" y="154" class="t">b</text>
<text x="384" y="154" class="t">e</text>
<text x="396" y="154" class="t">n</text>
<text x="72" y="176" class="t">4</text>
<text x="84" y="176" class="t">.</text>
<text x="108" y="176" class="t">D</text>
<text x="120" y="176" class="t">a</text>
<text x="132" y="176" class="t">t</text>
<text x="144" y="176" class="t">e</text>
<text x="156" y="176" class="t">i</text>
<text x="168" y="176" class="t">e</text>
<text x="180" y="176" class="t">n</text>
<text x="192" y="176" class="t">,</text>
<text x="216" y="176" class="t">B</text>
<text x="228" y="176" class="t">i</text>
<text x="240" y="176" class="t">b</text>
<text x="252" y="176" class="t">l</text>
<text x="264" y="176" class="t">i</text>
<text x="276" y="176" class="t">o</text>
<text x="288" y="176" class="t">t</text>
<text x="300" y="176" class="t">h</text>
<text x="312" y="176" class="t">e</text>
<text x="324" y="176" class="t">k</text>
<text x="336" y="176" class="t">e</text>
<text x="348" y="176" class="t">n</text>
<text x="372" y="176" class="t">u</text>
<text x="384" y="176" class="t">n</text>
<text x="396" y="176" class="t">d</text>
<text x="420" y="176" class="t">O</text>
<text x="432" y="176" class="t">r</text>
<text x="444" y="176" class="t">d</text>
<text x="456" y="176" class="t">n</text>
<text x="468" y="176" class="t">e</text>
<text x="480" y="176" class="t">r</text>
<text x="72" y="198" class="t">5</text>
<text x="84" y="198" class="t">.</text>
<text x="108" y="198" class="t">P</text>
<text x="120" y="198" class="t">r</text>
<text x="132" y="198" class="t">o</text>
<text x="144" y="198" class="t">g</text>
<text x="156" y="198" class="t">r</text>
<text x="168" y="198" class="t">a</text>
<text x="180" y="198" class="t">m</text>
<text x="192" y="198" class="t">m</text>
<text x="204" y="198" class="t">i</text>
<text x="216" y="198" class="t">e</text>
<text x="228" y="198" class="t">r</text>
<text x="240" y="198" class="t">u</text>
<text x="252" y="198" class="t">n</text>
<text x="264" y="198" class="t">g</text>
<text x="72" y="220" class="t">6</text>
<text x="84" y="220" class="t">.</text>
<text x="108" y="220" class="t">D</text>
<text x="120" y="220" class="t">a</text>
<text x="132" y="220" class="t">t</text>
<text x="144" y="220" class="t">e</text>
<text x="156" y="220" class="t">n</text>
<text x="168" y="220" class="t">f</text>
<text x="180" y="220" class="t">e</text>
<text x="192" y="220" class="t">r</text>
<text x="204" y="220" class="t">n</text>
<text x="216" y="220" class="t">v</text>
<text x="228" y="220" class="t">e</text>
<text x="240" y="220" class="t">r</text>
<text x="252" y="220" class="t">a</text>
<text x="264" y="220" class="t">r</text>
<text x="276" y="220" class="t">b</text>
<text x="288" y="220" class="t">e</text>
<text x="300" y="220" class="t">i</text>
<text x="312" y="220" class="t">t</text>
<text x="324" y="220" class="t">u</text>
<text x="336" y="220" class="t">n</text>
<text x="348" y="220" class="t">g</text>
<text x="72" y="242" class="t">7</text>
<text x="84" y="242" class="t">.</text>
<text x="108" y="242" class="t">S</text>
<text x="120" y="242" class="t">y</text>
<text x="132" y="242" class="t">s</text>
<text x="144" y="242" class="t">t</text>
<text x="156" y="242" class="t">e</text>
<text x="168" y="242" class="t">m</text>
<text x="192" y="242" class="t">d</text>
<text x="204" y="242" class="t">e</text>
<text x="216" y="242" class="t">f</text>
<text x="228" y="242" class="t">i</text>
<text x="240" y="242" class="t">n</text>
<text x="252" y="242" class="t">i</text>
<text x="264" y="242" class="t">e</text>
<text x="276" y="242" class="t">r</text>
<text x="288" y="242" class="t">e</text>
<text x="300" y="242" class="t">n</text>
<text x="324" y="242" class="t">o</text>
<text x="336" y="242" class="t">d</text>
<text x="348" y="242" class="t">e</text>
<text x="360" y="242" class="t">r</text>
<text x="384" y="242" class="t">ä</text>
<text x="396" y="242" class="t">n</text>
<text x="408" y="242" class="t">d</text>
<text x="420" y="242" class="t">e</text>
<text x="432" y="242" class="t">r</text>
<text x="444" y="242" class="t">n</text>
<text x="72" y="264" class="t">8</text>
<text x="84" y="264" class="t">.</text>
<text x="108" y="264" class="t">P</text>
<text x="120" y="264" class="t">r</text>
<text x="132" y="264" class="t">o</text>
<text x="144" y="264" class="t">b</text>
<text x="156" y="264" class="t">l</text>
<text x="168" y="264" class="t">e</text>
<text x="180" y="264" class="t">m</text>
<text x="192" y="264" class="t">b</text>
<text x="204" y="264" class="t">e</text>
<text x="216" y="264" class="t">h</text>
<text x="228" y="264" class="t">a</text>
<text x="240" y="264" class="t">n</text>
<text x="252" y="264" class="t">d</text>
<text x="264" y="264" class="t">l</text>
<text x="276" y="264" class="t">u</text>
<text x="288" y="264" class="t">n</text>
<text x="300" y="264" class="t">g</text>
<text x="72" y="286" class="t">9</text>
<text x="84" y="286" class="t">.</text>
<text x="108" y="286" class="t">M</text>
<text x="120" y="286" class="t">e</text>
<text x="132" y="286" class="t">n</text>
<text x="144" y="286" class="t">ü</text>
<text x="168" y="286" class="t">a</text>
<text x="180" y="286" class="t">n</text>
<text x="192" y="286" class="t">z</text>
<text x="204" y="286" class="t">e</text>
<text x="216" y="286" class="t">i</text>
<text x="228" y="286" class="t">g</text>
<text x="240" y="286" class="t">e</text>
<text x="252" y="286" class="t">n</text>
<text x="60" y="308" class="t">1</text>
<text x="72" y="308" class="t">0</text>
<text x="84" y="308" class="t">.</text>
<text x="108" y="308" class="t">U</text>
<text x="120" y="308" class="t">n</text>
<text x="132" y="308" class="t">t</text>
<text x="144" y="308" class="t">e</text>
<text x="156" y="308" class="t">r</text>
<text x="168" y="308" class="t">s</text>
<text x="180" y="308" class="t">t</text>
<text x="192" y="308" class="t">ü</text>
<text x="204" y="308" class="t">t</text>
<text x="216" y="308" class="t">z</text>
<text x="228" y="308" class="t">e</text>
<text x="240" y="308" class="t">n</text>
<text x="252" y="308" class="t">d</text>
<text x="264" y="308" class="t">e</text>
<text x="288" y="308" class="t">I</text>
<text x="300" y="308" class="t">n</text>
<text x="312" y="308" class="t">f</text>
<text x="324" y="308" class="t">o</text>
<text x="336" y="308" class="t">r</text>
<text x="348" y="308" class="t">m</text>
<text x="360" y="308" class="t">a</text>
<text x="372" y="308" class="t">t</text>
<text x="384" y="308" class="t">i</text>
<text x="396" y="308" class="t">o</text>
<text x="408" y="308" class="t">n</text>
<text x="420" y="308" class="t">e</text>
<text x="432" y="308" class="t">n</text>
<text x="456" y="308" class="t">-</text>
<text x="480" y="308" class="t">A</text>
<text x="492" y="308" class="t">u</text>
<text x="504" y="308" class="t">s</text>
<text x="516" y="308" class="t">w</text>
<text x="528" y="308" class="t">a</text>
<text x="540" y="308" class="t">h</text>
<text x="552" y="308" class="t">l</text>
<text x="564" y="308" class="t">m</text>
<text x="576" y="308" class="t">ö</text>
<text x="588" y="308" class="t">g</text>
<text x="600" y="308" class="t">l</text>
<text x="612" y="308" class="t">i</text>
<text x="624" y="308" class="t">c</text>
<text x="636" y="308" class="t">h</text>
<text x="648" y="308" class="t">k</text>
<text x="660" y="308" class="t">e</text>
<text x="672" y="308" class="t">i</text>
<text x="684" y="308" class="t">t</text>
<text x="696" y="308" class="t">e</text>
<text x="708" y="308" class="t">n</text>
<text x="60" y="330" class="t">1</text>
<text x="72" y="330" class="t">1</text>
<text x="84" y="330" class="t">.</text>
<text x="108" y="330" class="t">I</text>
<text x="120" y="330" class="t">B</text>
<text x="132" y="330" class="t">M</text>
<text x="156" y="330" class="t">i</text>
<text x="180" y="330" class="t">A</text>
<text x="192" y="330" class="t">c</text>
<text x="204" y="330" class="t">c</text>
<text x="216" y="330" class="t">e</text>
<text x="228" y="330" class="t">s</text>
<text x="240" y="330" class="t">s</text>
<text x="252" y="330" class="t">-</text>
<text x="264" y="330" class="t">A</text>
<text x="276" y="330" class="t">u</text>
<text x="288" y="330" class="t">f</text>
<text x="300" y="330" class="t">g</text>
<text x="312" y="330" class="t">a</text>
<text x="324" y="330" class="t">b</text>
<text x="336" y="330" class="t">e</text>
<text x="348" y="330" class="t">n</text>
<text x="60" y="374" class="t">9</text>
<text x="72" y="374" class="t">0</text>
<text x="84" y="374" class="t">.</text>
<text x="108" y="374" class="t">A</text>
<text x="120" y="374" class="t">b</text>
<text x="132" y="374" class="t">m</text>
<text x="144" y="374" class="t">e</text>
<text x="156" y="374" class="t">l</text>
<text x="168" y="374" class="t">d</text>
<text x="180" y="374" class="t">e</text>
<text x="192" y="374" class="t">n</text>
<text x="12" y="418" class="t">A</text>
<text x="24" y="418" class="t">u</text>
<text x="36" y="418" class="t">s</text>
<text x="48" y="418" class="t">w</text>
<text x="60" y="418" class="t">a</text>
<text x="72" y="418" class="t">h</text>
<text x="84" y="418" class="t">l</text>
<text x="108" y="418" class="t">o</text>
<text x="120" y="418" class="t">d</text>
<text x="132" y="418" class="t">e</text>
<text x="144" y="418" class="t">r</text>
<text x="168" y="418" class="t">B</text>
<text x="180" y="418" class="t">e</text>
<text x="192" y="418" class="t">f</text>
<text x="204" y="418" class="t">e</text>
<text x="216" y="418" class="t">h</text>
<text x="228" y="418" class="t">l</text>
<text x="12" y="440" class="t">=</text>
<text x="24" y="440" class="t">=</text>
<text x="36" y="440" class="t">=</text>
<text x="48" y="440" class="t">></text>
<text x="72" y="440" class="t UL">w</text>
<line x1="71" y1="441" x2="83" y2="441" class="l_UL" />
<text x="84" y="440" class="t UL">r</text>
<line x1="83" y1="441" x2="95" y2="441" class="l_UL" />
<text x="96" y="440" class="t UL">k</text>
<line x1="95" y1="441" x2="107" y2="441" class="l_UL" />
<text x="108" y="440" class="t UL">a</text>
<line x1="107" y1="441" x2="119" y2="441" class="l_UL" />
<text x="120" y="440" class="t UL">c</text>
<line x1="119" y1="441" x2="131" y2="441" class="l_UL" />
<text x="132" y="440" class="t UL">t</text>
<line x1="131" y1="441" x2="143" y2="441" class="l_UL" />
<text x="144" y="440" class="t UL">j</text>
<line x1="143" y1="441" x2="155" y2="441" class="l_UL" />
<text x="156" y="440" class="t UL">o</text>
<line x1="155" y1="441" x2="167" y2="441" class="l_UL" />
<text x="168" y="440" class="t UL">b</text>
<line x1="167" y1="441" x2="179" y2="441" class="l_UL" />
<line x1="179" y1="441" x2="191" y2="441" class="l_UL" />
<line x1="191" y1="441" x2="203" y2="441" class="l_UL" />
<line x1="203" y1="441" x2="215" y2="441" class="l_UL" />
<line x1="215" y1="441" x2="227" y2="441" class="l_UL" />
<line x1="227" y1="441" x2="239" y2="441" class="l_UL" />
<line x1="239" y1="441" x2="251" y2="441" class="l_UL" />
<line x1="251" y1="441" x2="263" y2="441" class="l_UL" />
<line x1="263" y1="441" x2="275" y2="441" class="l_UL" />
<line x1="275" y1="441" x2="287" y2="441" class="l_UL" />
<line x1="287" y1="441" x2="299" y2="441" class="l_UL" />
<line x1="299" y1="441" x2="311" y2="441" class="l_UL" />
<line x1="311" y1="441" x2="323" y2="441" class="l_UL" />
<line x1="323" y1="441" x2="335" y2="441" class="l_UL" />
<line x1="335" y1="441" x2="347" y2="441" class="l_UL" />
<line x1="347" y1="441" x2="359" y2="441" class="l_UL" />
<line x1="359" y1="441" x2="371" y2="441" class="l_UL" />
<line x1="371" y1="441" x2="383" y2="441" class="l_UL" />
<line x1="383" y1="441" x2="395" y2="441" class="l_UL" />
<line x1="395" y1="441" x2="407" y2="441" class="l_UL" />
<line x1="407" y1="441" x2="419" y2="441" class="l_UL" />
<line x1="419" y1="441" x2="431" y2="441" class="l_UL" />
<line x1="431" y1="441" x2="443" y2="441" class="l_UL" />
<line x1="443" y1="441" x2="455" y2="441" class="l_UL" />
<line x1="455" y1="441" x2="467" y2="441" class="l_UL" />
<line x1="467" y1="441" x2="479" y2="441" class="l_UL" />
<line x1="479" y1="441" x2="491" y2="441" class="l_UL" />
<line x1="491" y1="441" x2="503" y2="441" class="l_UL" />
<line x1="503" y1="441" x2="515" y2="441" class="l_UL" />
<line x1="515" y1="441" x2="527" y2="441" class="l_UL" />
<line x1="527" y1="441" x2="539" y2="441" class="l_UL" />
<line x1="539" y1="441" x2="551" y2="441" class="l_UL" />
<line x1="551" y1="441" x2="563" y2="441" class="l_UL" />
<line x1="563" y1="441" x2="575" y2="441" class="l_UL" />
<line x1="575" y1="441" x2="587" y2="441" class="l_UL" />
<line x1="587" y1="441" x2="599" y2="441" class="l_UL" />
<line x1="599" y1="441" x2="611" y2="441" class="l_UL" />
<line x1="611" y1="441" x2="623" y2="441" class="l_UL" />
<line x1="623" y1="441" x2="635" y2="441" class="l_UL" />
<line x1="635" y1="441" x2="647" y2="441" class="l_UL" />
<line x1="647" y1="441" x2="659" y2="441" class="l_UL" />
<line x1="659" y1="441" x2="671" y2="441" class="l_UL" />
<line x1="671" y1="441" x2="683" y2="441" class="l_UL" />
<line x1="683" y1="441" x2="695" y2="441" class="l_UL" />
<line x1="695" y1="441" x2="707" y2="441" class="l_UL" />
<line x1="707" y1="441" x2="719" y2="441" class="l_UL" />
<line x1="719" y1="441" x2="731" y2="441" class="l_UL" />
<line x1="731" y1="441" x2="743" y2="441" class="l_UL" />
<line x1="743" y1="441" x2="755" y2="441" class="l_UL" />
<line x1="755" y1="441" x2="767" y2="441" class="l_UL" />
<line x1="767" y1="441" x2="779" y2="441" class="l_UL" />
<line x1="779" y1="441" x2="791" y2="441" class="l_UL" />
<line x1="791" y1="441" x2="803" y2="441" class="l_UL" />
<line x1="803" y1="441" x2="815" y2="441" class="l_UL" />
<line x1="815" y1="441" x2="827" y2="441" class="l_UL" />
<line x1="827" y1="441" x2="839" y2="441" class="l_UL" />
<line x1="839" y1="441" x2="851" y2="441" class="l_UL" />
<line x1="851" y1="441" x2="863" y2="441" class="l_UL" />
<line x1="863" y1="441" x2="875" y2="441" class="l_UL" />
<line x1="875" y1="441" x2="887" y2="441" class="l_UL" />
<line x1="887" y1="441" x2="899" y2="441" class="l_UL" />
<line x1="899" y1="441" x2="911" y2="441" class="l_UL" />
<line x1="911" y1="441" x2="923" y2="441" class="l_UL" />
<line x1="923" y1="441" x2="935" y2="441" class="l_UL" />
<line x1="935" y1="441" x2="947" y2="441" class="l_UL" />
<line x1="947" y1="441" x2="959" y2="441" class="l_UL" />
<line x1="0" y1="463" x2="11" y2="463" class="l_UL" />
<line x1="11" y1="463" x2="23" y2="463" class="l_UL" />
<line x1="23" y1="463" x2="35" y2="463" class="l_UL" />
<line x1="35" y1="463" x2="47" y2="463" class="l_UL" />
<line x1="47" y1="463" x2="59" y2="463" class="l_UL" />
<line x1="59" y1="463" x2="71" y2="463" class="l_UL" />
<line x1="71" y1="463" x2="83" y2="463" class="l_UL" />
<line x1="83" y1="463" x2="95" y2="463" class="l_UL" />
<line x1="95" y1="463" x2="107" y2="463" class="l_UL" />
<line x1="107" y1="463" x2="119" y2="463" class="l_UL" />
<line x1="119" y1="463" x2="131" y2="463" class="l_UL" />
<line x1="131" y1="463" x2="143" y2="463" class="l_UL" />
<line x1="143" y1="463" x2="155" y2="463" class="l_UL" />
<line x1="155" y1="463" x2="167" y2="463" class="l_UL" />
<line x1="167" y1="463" x2="179" y2="463" class="l_UL" />
<line x1="179" y1="463" x2="191" y2="463" class="l_UL" />
<line x1="191" y1="463" x2="203" y2="463" class="l_UL" />
<line x1="203" y1="463" x2="215" y2="463" class="l_UL" />
<line x1="215" y1="463" x2="227" y2="463" class="l_UL" />
<line x1="227" y1="463" x2="239" y2="463" class="l_UL" />
<line x1="239" y1="463" x2="251" y2="463" class="l_UL" />
<line x1="251" y1="463" x2="263" y2="463" class="l_UL" />
<line x1="263" y1="463" x2="275" y2="463" class="l_UL" />
<line x1="275" y1="463" x2="287" y2="463" class="l_UL" />
<line x1="287" y1="463" x2="299" y2="463" class="l_UL" />
<line x1="299" y1="463" x2="311" y2="463" class="l_UL" />
<line x1="311" y1="463" x2="323" y2="463" class="l_UL" />
<line x1="323" y1="463" x2="335" y2="463" class="l_UL" />
<line x1="335" y1="463" x2="347" y2="463" class="l_UL" />
<line x1="347" y1="463" x2="359" y2="463" class="l_UL" />
<line x1="359" y1="463" x2="371" y2="463" class="l_UL" />
<line x1="371" y1="463" x2="383" y2="463" class="l_UL" />
<line x1="383" y1="463" x2="395" y2="463" class="l_UL" />
<line x1="395" y1="463" x2="407" y2="463" class="l_UL" />
<line x1="407" y1="463" x2="419" y2="463" class="l_UL" />
<line x1="419" y1="463" x2="431" y2="463" class="l_UL" />
<line x1="431" y1="463" x2="443" y2="463" class="l_UL" />
<line x1="443" y1="463" x2="455" y2="463" class="l_UL" />
<line x1="455" y1="463" x2="467" y2="463" class="l_UL" />
<line x1="467" y1="463" x2="479" y2="463" class="l_UL" />
<line x1="479" y1="463" x2="491" y2="463" class="l_UL" />
<line x1="491" y1="463" x2="503" y2="463" class="l_UL" />
<line x1="503" y1="463" x2="515" y2="463" class="l_UL" />
<line x1="515" y1="463" x2="527" y2="463" class="l_UL" />
<line x1="527" y1="463" x2="539" y2="463" class="l_UL" />
<line x1="539" y1="463" x2="551" y2="463" class="l_UL" />
<line x1="551" y1="463" x2="563" y2="463" class="l_UL" />
<line x1="563" y1="463" x2="575" y2="463" class="l_UL" />
<line x1="575" y1="463" x2="587" y2="463" class="l_UL" />
<line x1="587" y1="463" x2="599" y2="463" class="l_UL" />
<line x1="599" y1="463" x2="611" y2="463" class="l_UL" />
<line x1="611" y1="463" x2="623" y2="463" class="l_UL" />
<line x1="623" y1="463" x2="635" y2="463" class="l_UL" />
<line x1="635" y1="463" x2="647" y2="463" class="l_UL" />
<line x1="647" y1="463" x2="659" y2="463" class="l_UL" />
<line x1="659" y1="463" x2="671" y2="463" class="l_UL" />
<line x1="671" y1="463" x2="683" y2="463" class="l_UL" />
<line x1="683" y1="463" x2="695" y2="463" class="l_UL" />
<line x1="695" y1="463" x2="707" y2="463" class="l_UL" />
<line x1="707" y1="463" x2="719" y2="463" class="l_UL" />
<line x1="719" y1="463" x2="731" y2="463" class="l_UL" />
<line x1="731" y1="463" x2="743" y2="463" class="l_UL" />
<line x1="743" y1="463" x2="755" y2="463" class="l_UL" />
<line x1="755" y1="463" x2="767" y2="463" class="l_UL" />
<line x1="767" y1="463" x2="779" y2="463" class="l_UL" />
<line x1="779" y1="463" x2="791" y2="463" class="l_UL" />
<line x1="791" y1="463" x2="803" y2="463" class="l_UL" />
<line x1="803" y1="463" x2="815" y2="463" class="l_UL" />
<line x1="815" y1="463" x2="827" y2="463" class="l_UL" />
<line x1="827" y1="463" x2="839" y2="463" class="l_UL" />
<line x1="839" y1="463" x2="851" y2="463" class="l_UL" />
<line x1="851" y1="463" x2="863" y2="463" class="l_UL" />
<line x1="863" y1="463" x2="875" y2="463" class="l_UL" />
<line x1="875" y1="463" x2="887" y2="463" class="l_UL" />
<line x1="887" y1="463" x2="899" y2="463" class="l_UL" />
<line x1="899" y1="463" x2="911" y2="463" class="l_UL" />
<line x1="911" y1="463" x2="923" y2="463" class="l_UL" />
<line x1="923" y1="463" x2="935" y2="463" class="l_UL" />
<line x1="935" y1="463" x2="947" y2="463" class="l_UL" />
<text x="12" y="484" class="t HI BL CS">F</text>
<text x="24" y="484" class="t HI BL CS">3</text>
<text x="36" y="484" class="t HI BL CS">=</text>
<text x="48" y="484" class="t HI BL CS">V</text>
<text x="60" y="484" class="t HI BL CS">e</text>
<text x="72" y="484" class="t HI BL CS">r</text>
<text x="84" y="484" class="t HI BL CS">l</text>
<text x="96" y="484" class="t HI BL CS">a</text>
<text x="108" y="484" class="t HI BL CS">s</text>
<text x="120" y="484" class="t HI BL CS">s</text>
<text x="132" y="484" class="t HI BL CS">e</text>
<text x="144" y="484" class="t HI BL CS">n</text>
<text x="192" y="484" class="t HI BL CS">F</text>
<text x="204" y="484" class="t HI BL CS">4</text>
<text x="216" y="484" class="t HI BL CS">=</text>
<text x="228" y="484" class="t HI BL CS">B</text>
<text x="240" y="484" class="t HI BL CS">e</text>
<text x="252" y="484" class="t HI BL CS">d</text>
<text x="264" y="484" class="t HI BL CS">i</text>
<text x="276" y="484" class="t HI BL CS">e</text>
<text x="288" y="484" class="t HI BL CS">n</text>
<text x="300" y="484" class="t HI BL CS">e</text>
<text x="312" y="484" class="t HI BL CS">r</text>
<text x="324" y="484" class="t HI BL CS">f</text>
<text x="336" y="484" class="t HI BL CS">ü</text>
<text x="348" y="484" class="t HI BL CS">h</text>
<text x="360" y="484" class="t HI BL CS">r</text>
<text x="372" y="484" class="t HI BL CS">u</text>
<text x="384" y="484" class="t HI BL CS">n</text>
<text x="396" y="484" class="t HI BL CS">g</text>
<text x="444" y="484" class="t HI BL CS">F</text>
<text x="456" y="484" class="t HI BL CS">9</text>
<text x="468" y="484" class="t HI BL CS">=</text>
<text x="480" y="484" class="t HI BL CS">A</text>
<text x="492" y="484" class="t HI BL CS">u</text>
<text x="504" y="484" class="t HI BL CS">f</text>
<text x="516" y="484" class="t HI BL CS">f</text>
<text x="528" y="484" class="t HI BL CS">i</text>
<text x="540" y="484" class="t HI BL CS">n</text>
<text x="552" y="484" class="t HI BL CS">d</text>
<text x="564" y="484" class="t HI BL CS">e</text>
<text x="576" y="484" class="t HI BL CS">n</text>
<text x="624" y="484" class="t HI BL CS">F</text>
<text x="636" y="484" class="t HI BL CS">1</text>
<text x="648" y="484" class="t HI BL CS">2</text>
<text x="660" y="484" class="t HI BL CS">=</text>
<text x="672" y="484" class="t HI BL CS">A</text>
<text x="684" y="484" class="t HI BL CS">b</text>
<text x="696" y="484" class="t HI BL CS">b</text>
<text x="708" y="484" class="t HI BL CS">r</text>
<text x="720" y="484" class="t HI BL CS">e</text>
<text x="732" y="484" class="t HI BL CS">c</text>
<text x="744" y="484" class="t HI BL CS">h</text>
<text x="756" y="484" class="t HI BL CS">e</text>
<text x="768" y="484" class="t HI BL CS">n</text>
<text x="12" y="506" class="t HI BL CS">F</text>
<text x="24" y="506" class="t HI BL CS">1</text>
<text x="36" y="506" class="t HI BL CS">3</text>
<text x="48" y="506" class="t HI BL CS">=</text>
<text x="60" y="506" class="t HI BL CS">U</text>
<text x="72" y="506" class="t HI BL CS">n</text>
<text x="84" y="506" class="t HI BL CS">t</text>
<text x="96" y="506" class="t HI BL CS">e</text>
<text x="108" y="506" class="t HI BL CS">r</text>
<text x="120" y="506" class="t HI BL CS">s</text>
<text x="132" y="506" class="t HI BL CS">t</text>
<text x="144" y="506" class="t HI BL CS">ü</text>
<text x="156" y="506" class="t HI BL CS">t</text>
<text x="168" y="506" class="t HI BL CS">z</text>
<text x="180" y="506" class="t HI BL CS">e</text>
<text x="192" y="506" class="t HI BL CS">n</text>
<text x="204" y="506" class="t HI BL CS">d</text>
<text x="216" y="506" class="t HI BL CS">e</text>
<text x="240" y="506" class="t HI BL CS">I</text>
<text x="252" y="506" class="t HI BL CS">n</text>
<text x="264" y="506" class="t HI BL CS">f</text>
<text x="276" y="506" class="t HI BL CS">o</text>
<text x="288" y="506" class="t HI BL CS">r</text>
<text x="300" y="506" class="t HI BL CS">m</text>
<text x="312" y="506" class="t HI BL CS">a</text>
<text x="324" y="506" class="t HI BL CS">t</text>
<text x="336" y="506" class="t HI BL CS">i</text>
<text x="348" y="506" class="t HI BL CS">o</text>
<text x="360" y="506" class="t HI BL CS">n</text>
<text x="372" y="506" class="t HI BL CS">e</text>
<text x="384" y="506" class="t HI BL CS">n</text>
<text x="444" y="506" class="t HI BL CS">F</text>
<text x="456" y="506" class="t HI BL CS">2</text>
<text x="468" y="506" class="t HI BL CS">3</text>
<text x="480" y="506" class="t HI BL CS">=</text>
<text x="492" y="506" class="t HI BL CS">A</text>
<text x="504" y="506" class="t HI BL CS">n</text>
<text x="516" y="506" class="t HI BL CS">f</text>
<text x="528" y="506" class="t HI BL CS">a</text>
<text x="540" y="506" class="t HI BL CS">n</text>
<text x="552" y="506" class="t HI BL CS">g</text>
<text x="564" y="506" class="t HI BL CS">s</text>
<text x="576" y="506" class="t HI BL CS">m</text>
<text x="588" y="506" class="t HI BL CS">e</text>
<text x="600" y="506" class="t HI BL CS">n</text>
<text x="612" y="506" class="t HI BL CS">ü</text>
<text x="636" y="506" class="t HI BL CS">f</text>
<text x="648" y="506" class="t HI BL CS">e</text>
<text x="660" y="506" class="t HI BL CS">s</text>
<text x="672" y="506" class="t HI BL CS">t</text>
<text x="684" y="506" class="t HI BL CS">l</text>
<text x="696" y="506" class="t HI BL CS">e</text>
<text x="708" y="506" class="t HI BL CS">g</text>
<text x="720" y="506" class="t HI BL CS">e</text>
<text x="732" y="506" class="t HI BL CS">n</text>
<text x="12" y="528" class="t HI">A</text>
<text x="24" y="528" class="t HI">u</text>
<text x="36" y="528" class="t HI">s</text>
<text x="48" y="528" class="t HI">g</text>
<text x="60" y="528" class="t HI">a</text>
<text x="72" y="528" class="t HI">b</text>
<text x="84" y="528" class="t HI">e</text>
<text x="96" y="528" class="t HI">d</text>
<text x="108" y="528" class="t HI">a</text>
<text x="120" y="528" class="t HI">t</text>
<text x="132" y="528" class="t HI">e</text>
<text x="144" y="528" class="t HI">i</text>
<text x="168" y="528" class="t HI">C</text>
<text x="180" y="528" class="t HI">P</text>
<text x="192" y="528" class="t HI">Y</text>
<text x="204" y="528" class="t HI">S</text>
<text x="216" y="528" class="t HI">C</text>
<text x="228" y="528" class="t HI">N</text>
<text x="240" y="528" class="t HI">0</text>
<text x="252" y="528" class="t HI">1</text>
<text x="276" y="528" class="t HI">i</text>
<text x="288" y="528" class="t HI">n</text>
<text x="312" y="528" class="t HI">B</text>
<text x="324" y="528" class="t HI">i</text>
<text x="336" y="528" class="t HI">b</text>
<text x="348" y="528" class="t HI">l</text>
<text x="360" y="528" class="t HI">i</text>
<text x="372" y="528" class="t HI">o</text>
<text x="384" y="528" class="t HI">t</text>
<text x="396" y="528" class="t HI">h</text>
<text x="408" y="528" class="t HI">e</text>
<text x="420" y="528" class="t HI">k</text>
<text x="444" y="528" class="t HI">A</text>
<text x="456" y="528" class="t HI">N</text>
<text x="468" y="528" class="t HI">G</text>
<text x="480" y="528" class="t HI">O</text>
<text x="492" y="528" class="t HI">1</text>
<text x="516" y="528" class="t HI">e</text>
<text x="528" y="528" class="t HI">r</text>
<text x="540" y="528" class="t HI">s</text>
<text x="552" y="528" class="t HI">t</text>
<text x="564" y="528" class="t HI">e</text>
<text x="576" y="528" class="t HI">l</text>
<text x="588" y="528" class="t HI">l</text>
<text x="600" y="528" class="t HI">t</text>
<text x="612" y="528" class="t HI">.</text>
<text x="936" y="528" class="t HI">+</text>
</svg>
